<?xml version="1.0" encoding="UTF-8" standalone="no"?>
<!-- Created with Inkscape (http://www.inkscape.org/) -->

<svg
   xmlns:dc="http://purl.org/dc/elements/1.1/"
   xmlns:cc="http://creativecommons.org/ns#"
   xmlns:rdf="http://www.w3.org/1999/02/22-rdf-syntax-ns#"
   xmlns:svg="http://www.w3.org/2000/svg"
   xmlns="http://www.w3.org/2000/svg"
   xmlns:sodipodi="http://sodipodi.sourceforge.net/DTD/sodipodi-0.dtd"
   xmlns:inkscape="http://www.inkscape.org/namespaces/inkscape"
   width="350"
   height="200"
   id="svg6600"
   version="1.1"
   inkscape:version="0.48.4 r9939"
   sodipodi:docname="context_scheme.svg">
  <defs
     id="defs6602">
    <marker
       inkscape:stockid="Arrow1LendM"
       orient="auto"
       refY="0"
       refX="0"
       id="Arrow1LendM"
       style="overflow:visible">
      <path
         inkscape:connector-curvature="0"
         id="path5743"
         d="M 0,0 5,-5 -12.5,0 5,5 0,0 z"
         style="fill:#338000;fill-rule:evenodd;stroke:#338000;stroke-width:1pt"
         transform="matrix(-0.8,0,0,-0.8,-10,0)" />
    </marker>
    <marker
       inkscape:stockid="Arrow1LendO"
       orient="auto"
       refY="0"
       refX="0"
       id="Arrow1LendO"
       style="overflow:visible">
      <path
         inkscape:connector-curvature="0"
         id="path6230"
         d="M 0,0 5,-5 -12.5,0 5,5 0,0 z"
         style="fill:#008080;fill-rule:evenodd;stroke:#008080;stroke-width:1pt"
         transform="matrix(-0.8,0,0,-0.8,-10,0)" />
    </marker>
    <marker
       inkscape:stockid="Arrow1LendO"
       orient="auto"
       refY="0"
       refX="0"
       id="marker6578"
       style="overflow:visible">
      <path
         inkscape:connector-curvature="0"
         id="path6580"
         d="M 0,0 5,-5 -12.5,0 5,5 0,0 z"
         style="fill:#008080;fill-rule:evenodd;stroke:#008080;stroke-width:1pt"
         transform="matrix(-0.8,0,0,-0.8,-10,0)" />
    </marker>
    <marker
       inkscape:stockid="Arrow1LendO"
       orient="auto"
       refY="0"
       refX="0"
       id="Arrow1LendO-2"
       style="overflow:visible">
      <path
         inkscape:connector-curvature="0"
         id="path6230-9"
         d="M 0,0 5,-5 -12.5,0 5,5 0,0 z"
         style="fill:#008080;fill-rule:evenodd;stroke:#008080;stroke-width:1pt"
         transform="matrix(-0.8,0,0,-0.8,-10,0)" />
    </marker>
    <marker
       inkscape:stockid="Arrow1Lend3"
       orient="auto"
       refY="0"
       refX="0"
       id="Arrow1Lend3"
       style="overflow:visible">
      <path
         inkscape:connector-curvature="0"
         id="path7311"
         d="M 0,0 5,-5 -12.5,0 5,5 0,0 z"
         style="fill:#008080;fill-rule:evenodd;stroke:#008080;stroke-width:1pt"
         transform="matrix(-0.8,0,0,-0.8,-10,0)" />
    </marker>
    <marker
       inkscape:stockid="Arrow1LendO"
       orient="auto"
       refY="0"
       refX="0"
       id="marker6694"
       style="overflow:visible">
      <path
         inkscape:connector-curvature="0"
         id="path6696"
         d="M 0,0 5,-5 -12.5,0 5,5 0,0 z"
         style="fill:#008080;fill-rule:evenodd;stroke:#008080;stroke-width:1pt"
         transform="matrix(-0.8,0,0,-0.8,-10,0)" />
    </marker>
    <marker
       inkscape:stockid="Arrow1Lend3"
       orient="auto"
       refY="0"
       refX="0"
       id="marker6698"
       style="overflow:visible">
      <path
         inkscape:connector-curvature="0"
         id="path6700"
         d="M 0,0 5,-5 -12.5,0 5,5 0,0 z"
         style="fill:#008080;fill-rule:evenodd;stroke:#008080;stroke-width:1pt"
         transform="matrix(-0.8,0,0,-0.8,-10,0)" />
    </marker>
    <marker
       inkscape:stockid="Arrow1Lendy"
       orient="auto"
       refY="0"
       refX="0"
       id="Arrow1Lendy"
       style="overflow:visible">
      <path
         inkscape:connector-curvature="0"
         id="path6227"
         d="M 0,0 5,-5 -12.5,0 5,5 0,0 z"
         style="fill:#008080;fill-rule:evenodd;stroke:#008080;stroke-width:1pt"
         transform="matrix(-0.8,0,0,-0.8,-10,0)" />
    </marker>
    <marker
       inkscape:stockid="Arrow1LendO"
       orient="auto"
       refY="0"
       refX="0"
       id="Arrow1LendO-5"
       style="overflow:visible">
      <path
         inkscape:connector-curvature="0"
         id="path6230-3"
         d="M 0,0 5,-5 -12.5,0 5,5 0,0 z"
         style="fill:#008080;fill-rule:evenodd;stroke:#008080;stroke-width:1pt"
         transform="matrix(-0.8,0,0,-0.8,-10,0)" />
    </marker>
    <marker
       inkscape:stockid="Arrow1Lendwm"
       orient="auto"
       refY="0"
       refX="0"
       id="Arrow1Lendwm"
       style="overflow:visible">
      <path
         inkscape:connector-curvature="0"
         id="path7858"
         d="M 0,0 5,-5 -12.5,0 5,5 0,0 z"
         style="fill:#338000;fill-rule:evenodd;stroke:#338000;stroke-width:1pt"
         transform="matrix(-0.8,0,0,-0.8,-10,0)" />
    </marker>
    <marker
       inkscape:stockid="Arrow1Lendwm"
       orient="auto"
       refY="0"
       refX="0"
       id="marker6827"
       style="overflow:visible">
      <path
         inkscape:connector-curvature="0"
         id="path6829"
         d="M 0,0 5,-5 -12.5,0 5,5 0,0 z"
         style="fill:#338000;fill-rule:evenodd;stroke:#338000;stroke-width:1pt"
         transform="matrix(-0.8,0,0,-0.8,-10,0)" />
    </marker>
    <marker
       inkscape:stockid="Arrow1LendO"
       orient="auto"
       refY="0"
       refX="0"
       id="marker6831"
       style="overflow:visible">
      <path
         inkscape:connector-curvature="0"
         id="path6833"
         d="M 0,0 5,-5 -12.5,0 5,5 0,0 z"
         style="fill:#008080;fill-rule:evenodd;stroke:#008080;stroke-width:1pt"
         transform="matrix(-0.8,0,0,-0.8,-10,0)" />
    </marker>
    <marker
       inkscape:stockid="Arrow1Lendjz"
       orient="auto"
       refY="0"
       refX="0"
       id="Arrow1Lendjz"
       style="overflow:visible">
      <path
         inkscape:connector-curvature="0"
         id="path5767"
         d="M 0,0 5,-5 -12.5,0 5,5 0,0 z"
         style="fill:#338000;fill-rule:evenodd;stroke:#338000;stroke-width:1pt"
         transform="matrix(-0.8,0,0,-0.8,-10,0)" />
    </marker>
    <marker
       inkscape:stockid="Arrow1LendH"
       orient="auto"
       refY="0"
       refX="0"
       id="Arrow1LendH"
       style="overflow:visible">
      <path
         inkscape:connector-curvature="0"
         id="path6245"
         d="M 0,0 5,-5 -12.5,0 5,5 0,0 z"
         style="fill:#008080;fill-rule:evenodd;stroke:#008080;stroke-width:1pt"
         transform="matrix(-0.8,0,0,-0.8,-10,0)" />
    </marker>
    <marker
       inkscape:stockid="Arrow1Lendg"
       orient="auto"
       refY="0"
       refX="0"
       id="Arrow1Lendg"
       style="overflow:visible">
      <path
         inkscape:connector-curvature="0"
         id="path6248"
         d="M 0,0 5,-5 -12.5,0 5,5 0,0 z"
         style="fill:#008080;fill-rule:evenodd;stroke:#008080;stroke-width:1pt"
         transform="matrix(-0.8,0,0,-0.8,-10,0)" />
    </marker>
    <marker
       inkscape:stockid="Arrow1Lendy"
       orient="auto"
       refY="0"
       refX="0"
       id="marker6841"
       style="overflow:visible">
      <path
         inkscape:connector-curvature="0"
         id="path6843"
         d="M 0,0 5,-5 -12.5,0 5,5 0,0 z"
         style="fill:#008080;fill-rule:evenodd;stroke:#008080;stroke-width:1pt"
         transform="matrix(-0.8,0,0,-0.8,-10,0)" />
    </marker>
    <marker
       inkscape:stockid="Arrow1Lendwm"
       orient="auto"
       refY="0"
       refX="0"
       id="Arrow1Lendwm-9"
       style="overflow:visible">
      <path
         inkscape:connector-curvature="0"
         id="path7858-5"
         d="M 0,0 5,-5 -12.5,0 5,5 0,0 z"
         style="fill:#338000;fill-rule:evenodd;stroke:#338000;stroke-width:1pt"
         transform="matrix(-0.8,0,0,-0.8,-10,0)" />
    </marker>
    <marker
       inkscape:stockid="Arrow1Lendwm"
       orient="auto"
       refY="0"
       refX="0"
       id="marker7037"
       style="overflow:visible">
      <path
         inkscape:connector-curvature="0"
         id="path7039"
         d="M 0,0 5,-5 -12.5,0 5,5 0,0 z"
         style="fill:#338000;fill-rule:evenodd;stroke:#338000;stroke-width:1pt"
         transform="matrix(-0.8,0,0,-0.8,-10,0)" />
    </marker>
    <marker
       inkscape:stockid="Arrow1Lendjz"
       orient="auto"
       refY="0"
       refX="0"
       id="Arrow1Lendjz-2"
       style="overflow:visible">
      <path
         inkscape:connector-curvature="0"
         id="path5767-0"
         d="M 0,0 5,-5 -12.5,0 5,5 0,0 z"
         style="fill:#338000;fill-rule:evenodd;stroke:#338000;stroke-width:1pt"
         transform="matrix(-0.8,0,0,-0.8,-10,0)" />
    </marker>
    <marker
       inkscape:stockid="Arrow1LendH"
       orient="auto"
       refY="0"
       refX="0"
       id="Arrow1LendH-3"
       style="overflow:visible">
      <path
         inkscape:connector-curvature="0"
         id="path6245-5"
         d="M 0,0 5,-5 -12.5,0 5,5 0,0 z"
         style="fill:#008080;fill-rule:evenodd;stroke:#008080;stroke-width:1pt"
         transform="matrix(-0.8,0,0,-0.8,-10,0)" />
    </marker>
    <marker
       inkscape:stockid="Arrow1Lendg"
       orient="auto"
       refY="0"
       refX="0"
       id="Arrow1Lendg-1"
       style="overflow:visible">
      <path
         inkscape:connector-curvature="0"
         id="path6248-8"
         d="M 0,0 5,-5 -12.5,0 5,5 0,0 z"
         style="fill:#008080;fill-rule:evenodd;stroke:#008080;stroke-width:1pt"
         transform="matrix(-0.8,0,0,-0.8,-10,0)" />
    </marker>
    <marker
       inkscape:stockid="Arrow1LendO"
       orient="auto"
       refY="0"
       refX="0"
       id="Arrow1LendO-4"
       style="overflow:visible">
      <path
         inkscape:connector-curvature="0"
         id="path6230-8"
         d="M 0,0 5,-5 -12.5,0 5,5 0,0 z"
         style="fill:#008080;fill-rule:evenodd;stroke:#008080;stroke-width:1pt"
         transform="matrix(-0.8,0,0,-0.8,-10,0)" />
    </marker>
    <marker
       inkscape:stockid="Arrow1Lendg"
       orient="auto"
       refY="0"
       refX="0"
       id="Arrow1Lendg-2"
       style="overflow:visible">
      <path
         inkscape:connector-curvature="0"
         id="path6248-4"
         d="M 0,0 5,-5 -12.5,0 5,5 0,0 z"
         style="fill:#008080;fill-rule:evenodd;stroke:#008080;stroke-width:1pt"
         transform="matrix(-0.8,0,0,-0.8,-10,0)" />
    </marker>
    <marker
       inkscape:stockid="Arrow1Lendjz"
       orient="auto"
       refY="0"
       refX="0"
       id="Arrow1Lendjz-6"
       style="overflow:visible">
      <path
         inkscape:connector-curvature="0"
         id="path5767-7"
         d="M 0,0 5,-5 -12.5,0 5,5 0,0 z"
         style="fill:#338000;fill-rule:evenodd;stroke:#338000;stroke-width:1pt"
         transform="matrix(-0.8,0,0,-0.8,-10,0)" />
    </marker>
    <marker
       inkscape:stockid="Arrow1Lend4g"
       orient="auto"
       refY="0"
       refX="0"
       id="Arrow1Lend4g"
       style="overflow:visible">
      <path
         inkscape:connector-curvature="0"
         id="path7314"
         d="M 0,0 5,-5 -12.5,0 5,5 0,0 z"
         style="fill:#008080;fill-rule:evenodd;stroke:#008080;stroke-width:1pt"
         transform="matrix(-0.8,0,0,-0.8,-10,0)" />
    </marker>
    <marker
       inkscape:stockid="Arrow1LendF"
       orient="auto"
       refY="0"
       refX="0"
       id="Arrow1LendF"
       style="overflow:visible">
      <path
         inkscape:connector-curvature="0"
         id="path5740"
         d="M 0,0 5,-5 -12.5,0 5,5 0,0 z"
         style="fill:#338000;fill-rule:evenodd;stroke:#338000;stroke-width:1pt"
         transform="matrix(-0.8,0,0,-0.8,-10,0)" />
    </marker>
    <marker
       inkscape:stockid="Arrow1Lendz"
       orient="auto"
       refY="0"
       refX="0"
       id="Arrow1Lendz"
       style="overflow:visible">
      <path
         inkscape:connector-curvature="0"
         id="path6251"
         d="M 0,0 5,-5 -12.5,0 5,5 0,0 z"
         style="fill:#008080;fill-rule:evenodd;stroke:#008080;stroke-width:1pt"
         transform="matrix(-0.8,0,0,-0.8,-10,0)" />
    </marker>
    <marker
       inkscape:stockid="Arrow1Lendx"
       orient="auto"
       refY="0"
       refX="0"
       id="Arrow1Lendx"
       style="overflow:visible">
      <path
         inkscape:connector-curvature="0"
         id="path6239"
         d="M 0,0 5,-5 -12.5,0 5,5 0,0 z"
         style="fill:#008080;fill-rule:evenodd;stroke:#008080;stroke-width:1pt"
         transform="matrix(-0.8,0,0,-0.8,-10,0)" />
    </marker>
    <marker
       inkscape:stockid="Arrow1Lendjz"
       orient="auto"
       refY="0"
       refX="0"
       id="Arrow1Lendjz-4"
       style="overflow:visible">
      <path
         inkscape:connector-curvature="0"
         id="path5767-72"
         d="M 0,0 5,-5 -12.5,0 5,5 0,0 z"
         style="fill:#338000;fill-rule:evenodd;stroke:#338000;stroke-width:1pt"
         transform="matrix(-0.8,0,0,-0.8,-10,0)" />
    </marker>
    <marker
       inkscape:stockid="Arrow1LendF"
       orient="auto"
       refY="0"
       refX="0"
       id="Arrow1LendF-7"
       style="overflow:visible">
      <path
         inkscape:connector-curvature="0"
         id="path5740-6"
         d="M 0,0 5,-5 -12.5,0 5,5 0,0 z"
         style="fill:#338000;fill-rule:evenodd;stroke:#338000;stroke-width:1pt"
         transform="matrix(-0.8,0,0,-0.8,-10,0)" />
    </marker>
  </defs>
  <sodipodi:namedview
     id="base"
     pagecolor="#ffffff"
     bordercolor="#666666"
     borderopacity="1.0"
     inkscape:pageopacity="0.0"
     inkscape:pageshadow="2"
     inkscape:zoom="0.35"
     inkscape:cx="375"
     inkscape:cy="62.857143"
     inkscape:document-units="px"
     inkscape:current-layer="layer1"
     showgrid="false"
     inkscape:window-width="483"
     inkscape:window-height="383"
     inkscape:window-x="1117"
     inkscape:window-y="24"
     inkscape:window-maximized="0" />
  <metadata
     id="metadata6605">
    <rdf:RDF>
      <cc:Work
         rdf:about="">
        <dc:format>image/svg+xml</dc:format>
        <dc:type
           rdf:resource="http://purl.org/dc/dcmitype/StillImage" />
        <dc:title></dc:title>
      </cc:Work>
    </rdf:RDF>
  </metadata>
  <g
     inkscape:label="Layer 1"
     inkscape:groupmode="layer"
     id="layer1"
     transform="translate(0,-852.36218)">
    <text
       inkscape:export-ydpi="600"
       inkscape:export-xdpi="600"
       inkscape:export-filename="C:\Users\Jacky\Desktop\system.png"
       sodipodi:linespacing="125%"
       id="text4509-7"
       y="915.138"
       x="254.99507"
       style="font-size:13px;font-style:normal;font-variant:normal;font-weight:normal;font-stretch:normal;line-height:125%;letter-spacing:0px;word-spacing:0px;fill:#000000;fill-opacity:1;stroke:none;font-family:PT Sans Narrow;-inkscape-font-specification:PT Sans Narrow"
       xml:space="preserve"><tspan
         y="915.138"
         x="254.99507"
         id="tspan4511-6"
         sodipodi:role="line">ToExecute</tspan></text>
    <text
       inkscape:export-ydpi="600"
       inkscape:export-xdpi="600"
       inkscape:export-filename="C:\Users\Jacky\Desktop\system.png"
       sodipodi:linespacing="125%"
       id="text4515-7"
       y="915.67932"
       x="37.047195"
       style="font-size:13px;font-style:normal;font-variant:normal;font-weight:normal;font-stretch:normal;line-height:125%;letter-spacing:0px;word-spacing:0px;fill:#000000;fill-opacity:1;stroke:none;font-family:PT Sans Narrow;-inkscape-font-specification:PT Sans Narrow"
       xml:space="preserve"><tspan
         id="tspan4519-6"
         y="915.67932"
         x="37.047195"
         sodipodi:role="line">ToSchedule</tspan></text>
    <rect
       inkscape:export-ydpi="600"
       inkscape:export-xdpi="600"
       inkscape:export-filename="C:\Users\Jacky\Desktop\system.png"
       y="900.09839"
       x="117.8138"
       height="38.195065"
       width="116.22643"
       id="rect4559-5"
       style="fill:#ffe680;fill-opacity:1;stroke:#000000;stroke-width:1;stroke-opacity:1" />
    <text
       inkscape:export-ydpi="600"
       inkscape:export-xdpi="600"
       inkscape:export-filename="C:\Users\Jacky\Desktop\system.png"
       sodipodi:linespacing="125%"
       id="text4561-1"
       y="927.94171"
       x="120.97163"
       style="font-size:16.05991364px;font-style:normal;font-variant:normal;font-weight:normal;font-stretch:normal;line-height:125%;letter-spacing:0px;word-spacing:0px;fill:#000000;fill-opacity:1;stroke:none;font-family:PT Sans Narrow;-inkscape-font-specification:PT Sans Narrow"
       xml:space="preserve"
       transform="scale(1.0032551,0.99675547)"><tspan
         style="font-size:17.46651459px;font-family:PT Sans Narrow;-inkscape-font-specification:PT Sans Narrow"
         y="927.94171"
         x="120.97163"
         id="tspan4563-9"
         sodipodi:role="line">Task Scheduler</tspan></text>
    <rect
       y="972.97894"
       x="102.31233"
       height="42.627804"
       width="151.19144"
       id="rect5911"
       style="fill:#b3b3b3;fill-opacity:1;stroke:#000000;stroke-width:1.89540839;stroke-opacity:1"
       inkscape:export-filename="C:\Users\Jacky\Desktop\system.png"
       inkscape:export-xdpi="600"
       inkscape:export-ydpi="600" />
    <text
       sodipodi:linespacing="125%"
       id="text5913"
       y="1004.2303"
       x="113.64192"
       style="font-size:16.05991364px;font-style:normal;font-variant:normal;font-weight:normal;font-stretch:normal;line-height:125%;letter-spacing:0px;word-spacing:0px;fill:#000000;fill-opacity:1;stroke:none;font-family:PT Sans Narrow;-inkscape-font-specification:PT Sans Narrow"
       xml:space="preserve"
       transform="scale(1.0032551,0.99675547)"
       inkscape:export-filename="C:\Users\Jacky\Desktop\system.png"
       inkscape:export-xdpi="600"
       inkscape:export-ydpi="600"><tspan
         style="font-size:17.46651459px;font-family:PT Sans Narrow;-inkscape-font-specification:PT Sans Narrow"
         y="1004.2303"
         x="113.64192"
         id="tspan5915"
         sodipodi:role="line">Task Scheduler Tester</tspan></text>
    <path
       sodipodi:nodetypes="cccc"
       style="fill:none;stroke:#338000;stroke-width:0.99999994px;stroke-linecap:butt;stroke-linejoin:miter;stroke-opacity:1;marker-start:none;marker-end:url(#Arrow1LendF)"
       d="m 89.771607,998.5363 -60.3082,0 0,-77.09799 77.278793,0"
       id="path5917"
       inkscape:connector-curvature="0" />
    <path
       inkscape:export-ydpi="600"
       inkscape:export-xdpi="600"
       inkscape:export-filename="C:\Users\Jacky\Desktop\system.png"
       style="fill:none;stroke:#338000;stroke-width:1px;stroke-linecap:butt;stroke-linejoin:miter;stroke-opacity:1;marker-start:none;marker-end:url(#Arrow1Lendjz)"
       d="m 245.0131,920.80701 79.8092,0 0,74.50479 -61.1485,0"
       id="path5919"
       inkscape:connector-curvature="0"
       sodipodi:nodetypes="cccc" />
  </g>
</svg>
